HIERARCHY
ROOT Hips
{
	OFFSET -0.000008 104.274872 1.554316
	CHANNELS 6 Xposition Yposition Zposition Xrotation Yrotation Zrotation
	JOINT Spine
	{
		OFFSET -0.000005 10.181595 0.131521
		CHANNELS 6 Xposition Yposition Zposition Xrotation Yrotation Zrotation
		JOINT Spine1
		{
			OFFSET -0.000000 9.893959 -1.470711
			CHANNELS 6 Xposition Yposition Zposition Xrotation Yrotation Zrotation
			JOINT Spine2
			{
				OFFSET -0.000000 9.220757 -1.370642
				CHANNELS 3 Xrotation Yrotation Zrotation
				JOINT Neck
				{
					OFFSET 0.000001 16.740417 -2.049038
					CHANNELS 6 Xposition Yposition Zposition Xrotation Yrotation Zrotation
					JOINT Head
					{
						OFFSET 0.000000 9.617874 1.685009
						CHANNELS 6 Xposition Yposition Zposition Xrotation Yrotation Zrotation
						JOINT HeadTop_End
						{
							OFFSET 0.000002 22.037384 7.501098
							CHANNELS 6 Xposition Yposition Zposition Xrotation Yrotation Zrotation
							End Site
							{
								OFFSET 0.000002 23.106583 -2.828261
							}
						}
					}
				}
				JOINT RightShoulder
				{
					OFFSET -4.569969 11.014923 -2.160886
					CHANNELS 6 Xposition Yposition Zposition Xrotation Yrotation Zrotation
					JOINT RightArm
					{
						OFFSET -10.592850 -0.524811 -2.232100
						CHANNELS 3 Xrotation Yrotation Zrotation
						JOINT RightForeArm
						{
							OFFSET -27.841520 0.000015 -0.000005
							CHANNELS 6 Xposition Yposition Zposition Xrotation Yrotation Zrotation
							JOINT RightHand
							{
								OFFSET -28.328838 -0.000015 0.000018
								CHANNELS 6 Xposition Yposition Zposition Xrotation Yrotation Zrotation
								JOINT RightHandThumb1
								{
									OFFSET -2.464806 -1.573990 2.681853
									CHANNELS 6 Xposition Yposition Zposition Xrotation Yrotation Zrotation
									JOINT RightHandThumb2
									{
										OFFSET -3.215195 -1.872772 1.924282
										CHANNELS 6 Xposition Yposition Zposition Xrotation Yrotation Zrotation
										JOINT RightHandThumb3
										{
											OFFSET -2.654823 -1.527985 1.512609
											CHANNELS 6 Xposition Yposition Zposition Xrotation Yrotation Zrotation
											JOINT RightHandThumb4
											{
												OFFSET -2.018822 -1.152008 1.108055
												CHANNELS 3 Xrotation Yrotation Zrotation
												End Site
												{
													OFFSET -1.888100 -1.145340 1.324313
												}
											}
										}
									}
								}
								JOINT RightHandIndex1
								{
									OFFSET -9.108284 -0.517868 2.259835
									CHANNELS 6 Xposition Yposition Zposition Xrotation Yrotation Zrotation
									JOINT RightHandIndex2
									{
										OFFSET -3.699997 0.000000 0.001215
										CHANNELS 3 Xrotation Yrotation Zrotation
										JOINT RightHandIndex3
										{
											OFFSET -2.850014 0.000031 -0.000522
											CHANNELS 3 Xrotation Yrotation Zrotation
											JOINT RightHandIndex4
											{
												OFFSET -2.772179 -0.000015 -0.000019
												CHANNELS 3 Xrotation Yrotation Zrotation
												End Site
												{
													OFFSET -2.772186 0.000000 -0.000502
												}
											}
										}
									}
								}
								JOINT RightHandMiddle1
								{
									OFFSET -9.532509 -0.000046 -0.000025
									CHANNELS 6 Xposition Yposition Zposition Xrotation Yrotation Zrotation
									JOINT RightHandMiddle2
									{
										OFFSET -3.700012 0.000000 0.003713
										CHANNELS 3 Xrotation Yrotation Zrotation
										JOINT RightHandMiddle3
										{
											OFFSET -2.949989 0.000015 -0.002054
											CHANNELS 3 Xrotation Yrotation Zrotation
											JOINT RightHandMiddle4
											{
												OFFSET -2.946625 0.000000 -0.000154
												CHANNELS 3 Xrotation Yrotation Zrotation
												End Site
												{
													OFFSET -2.946632 0.000015 -0.001136
												}
											}
										}
									}
								}
								JOINT RightHandRing1
								{
									OFFSET -9.103600 -0.043076 -1.865135
									CHANNELS 6 Xposition Yposition Zposition Xrotation Yrotation Zrotation
									JOINT RightHandRing2
									{
										OFFSET -3.379272 0.000000 -0.001054
										CHANNELS 3 Xrotation Yrotation Zrotation
										JOINT RightHandRing3
										{
											OFFSET -2.889694 0.000015 0.000379
											CHANNELS 3 Xrotation Yrotation Zrotation
											JOINT RightHandRing4
											{
												OFFSET -2.638809 0.000000 0.000941
												CHANNELS 3 Xrotation Yrotation Zrotation
												End Site
												{
													OFFSET -2.638802 0.000000 0.005160
												}
											}
										}
									}
								}
								JOINT RightHandPinky1
								{
									OFFSET -8.076675 -0.486710 -3.806280
									CHANNELS 6 Xposition Yposition Zposition Xrotation Yrotation Zrotation
									JOINT RightHandPinky2
									{
										OFFSET -3.600006 -0.000031 -0.003747
										CHANNELS 3 Xrotation Yrotation Zrotation
										JOINT RightHandPinky3
										{
											OFFSET -2.099976 -0.000015 -0.005740
											CHANNELS 3 Xrotation Yrotation Zrotation
											JOINT RightHandPinky4
											{
												OFFSET -2.115776 -0.000031 -0.003680
												CHANNELS 3 Xrotation Yrotation Zrotation
												End Site
												{
													OFFSET -2.115776 -0.000015 -0.003507
												}
											}
										}
									}
								}
							}
						}
					}
				}
				JOINT LeftShoulder
				{
					OFFSET 4.570447 11.014725 -2.160858
					CHANNELS 6 Xposition Yposition Zposition Xrotation Yrotation Zrotation
					JOINT LeftArm
					{
						OFFSET 10.592371 -0.524597 -2.232121
						CHANNELS 3 Xrotation Yrotation Zrotation
						JOINT LeftForeArm
						{
							OFFSET 27.841520 -0.000015 0.000023
							CHANNELS 3 Xrotation Yrotation Zrotation
							JOINT LeftHand
							{
								OFFSET 28.328835 -0.000046 0.000017
								CHANNELS 6 Xposition Yposition Zposition Xrotation Yrotation Zrotation
								JOINT LeftHandThumb1
								{
									OFFSET 2.466141 -1.576187 2.681734
									CHANNELS 6 Xposition Yposition Zposition Xrotation Yrotation Zrotation
									JOINT LeftHandThumb2
									{
										OFFSET 3.217804 -1.872055 1.916487
										CHANNELS 6 Xposition Yposition Zposition Xrotation Yrotation Zrotation
										JOINT LeftHandThumb3
										{
											OFFSET 2.656021 -1.528809 1.514508
											CHANNELS 6 Xposition Yposition Zposition Xrotation Yrotation Zrotation
											JOINT LeftHandThumb4
											{
												OFFSET 2.020889 -1.154068 1.115132
												CHANNELS 6 Xposition Yposition Zposition Xrotation Yrotation Zrotation
												End Site
												{
													OFFSET 1.908852 -1.150833 1.300490
												}
											}
										}
									}
								}
								JOINT LeftHandIndex1
								{
									OFFSET 9.109306 -0.518036 2.259871
									CHANNELS 6 Xposition Yposition Zposition Xrotation Yrotation Zrotation
									JOINT LeftHandIndex2
									{
										OFFSET 3.699997 -0.000015 -0.000323
										CHANNELS 3 Xrotation Yrotation Zrotation
										JOINT LeftHandIndex3
										{
											OFFSET 2.850006 -0.000015 0.000350
											CHANNELS 3 Xrotation Yrotation Zrotation
											JOINT LeftHandIndex4
											{
												OFFSET 2.774857 -0.000015 -0.000027
												CHANNELS 3 Xrotation Yrotation Zrotation
												End Site
												{
													OFFSET 2.774864 0.000000 -0.000099
												}
											}
										}
									}
								}
								JOINT LeftHandMiddle1
								{
									OFFSET 9.533401 0.000031 0.000044
									CHANNELS 6 Xposition Yposition Zposition Xrotation Yrotation Zrotation
									JOINT LeftHandMiddle2
									{
										OFFSET 3.699997 0.000000 -0.000231
										CHANNELS 3 Xrotation Yrotation Zrotation
										JOINT LeftHandMiddle3
										{
											OFFSET 2.949997 -0.000015 -0.000059
											CHANNELS 3 Xrotation Yrotation Zrotation
											JOINT LeftHandMiddle4
											{
												OFFSET 2.952866 0.000000 0.000062
												CHANNELS 3 Xrotation Yrotation Zrotation
												End Site
												{
													OFFSET 2.952858 0.000000 0.000228
												}
											}
										}
									}
								}
								JOINT LeftHandRing1
								{
									OFFSET 9.104530 -0.043030 -1.865075
									CHANNELS 6 Xposition Yposition Zposition Xrotation Yrotation Zrotation
									JOINT LeftHandRing2
									{
										OFFSET 3.150009 0.000000 0.000042
										CHANNELS 3 Xrotation Yrotation Zrotation
										JOINT LeftHandRing3
										{
											OFFSET 2.949989 -0.000015 0.000040
											CHANNELS 3 Xrotation Yrotation Zrotation
											JOINT LeftHandRing4
											{
												OFFSET 2.644318 -0.000015 0.000056
												CHANNELS 6 Xposition Yposition Zposition Xrotation Yrotation Zrotation
												End Site
												{
													OFFSET 2.644318 0.000000 0.000120
												}
											}
										}
									}
								}
								JOINT LeftHandPinky1
								{
									OFFSET 8.077782 -0.486877 -3.806258
									CHANNELS 6 Xposition Yposition Zposition Xrotation Yrotation Zrotation
									JOINT LeftHandPinky2
									{
										OFFSET 3.599960 0.000031 0.014726
										CHANNELS 3 Xrotation Yrotation Zrotation
										JOINT LeftHandPinky3
										{
											OFFSET 2.099998 0.000031 0.007705
											CHANNELS 3 Xrotation Yrotation Zrotation
											JOINT LeftHandPinky4
											{
												OFFSET 2.125504 0.000000 0.007515
												CHANNELS 3 Xrotation Yrotation Zrotation
												End Site
												{
													OFFSET 2.125511 0.000015 0.006257
												}
											}
										}
									}
								}
							}
						}
					}
				}
			}
		}
	}
	JOINT RightUpLeg
	{
		OFFSET -8.207787 -6.751663 -1.599560
		CHANNELS 6 Xposition Yposition Zposition Xrotation Yrotation Zrotation
		JOINT RightLeg
		{
			OFFSET -0.000001 -44.370129 0.345939
			CHANNELS 3 Xrotation Yrotation Zrotation
			JOINT RightFoot
			{
				OFFSET 0.000001 -44.423679 -3.043537
				CHANNELS 3 Xrotation Yrotation Zrotation
				JOINT RightToeBase
				{
					OFFSET -0.000003 -8.728673 10.710563
					CHANNELS 6 Xposition Yposition Zposition Xrotation Yrotation Zrotation
					JOINT RightToe_End
					{
						OFFSET -0.000002 -0.000676 9.278122
						CHANNELS 6 Xposition Yposition Zposition Xrotation Yrotation Zrotation
						End Site
						{
							OFFSET -0.000003 -0.000676 9.278122
						}
					}
				}
			}
		}
	}
	JOINT LeftUpLeg
	{
		OFFSET 8.207791 -6.751694 -1.599555
		CHANNELS 6 Xposition Yposition Zposition Xrotation Yrotation Zrotation
		JOINT LeftLeg
		{
			OFFSET -0.000002 -44.370033 0.346957
			CHANNELS 3 Xrotation Yrotation Zrotation
			JOINT LeftFoot
			{
				OFFSET 0.000000 -44.423672 -3.044393
				CHANNELS 3 Xrotation Yrotation Zrotation
				JOINT LeftToeBase
				{
					OFFSET -0.000003 -8.728668 10.710562
					CHANNELS 6 Xposition Yposition Zposition Xrotation Yrotation Zrotation
					JOINT LeftToe_End
					{
						OFFSET -0.000003 -0.000676 9.278135
						CHANNELS 6 Xposition Yposition Zposition Xrotation Yrotation Zrotation
						End Site
						{
							OFFSET -0.000003 -0.000677 9.278135
						}
					}
				}
			}
		}
	}
}
MOTION
Frames: 4
Frame Time: 0.033333
-0.524245 92.925377 488.949219 0.360008 -2.398194 -3.759792 -0.000002 10.181573 0.131547 3.235120 0.024956 0.828786 0.000000 9.893967 -1.470720 6.469519 0.565997 0.971227 6.469518 0.565996 0.971227 0.000004 16.740427 -2.048997 -5.014027 0.503800 -1.664721 0.000001 9.617887 1.685035 -7.488245 0.198122 -0.878266 0.000003 22.037338 7.501071 0.000000 0.000000 0.000000 -4.569964 11.014931 -2.160850 -2.339436 7.629777 14.768500 23.839404 1.999679 57.797033 -27.841560 -0.000003 -0.000032 96.968660 56.503887 -109.182384 -28.328846 0.000011 0.000040 -7.210689 8.686174 -3.258513 -2.464795 -1.573957 2.681853 5.693095 0.154876 -16.852892 -3.215139 -1.872731 1.924221 19.546280 -30.381692 6.573255 -2.654815 -1.527987 1.512605 -7.309125 20.995902 1.330491 -0.000000 0.000003 0.000003 -9.108274 -0.517840 2.259826 4.156582 -0.188386 81.283875 5.574055 -5.980465 93.933679 1.677157 -4.120122 62.273314 -0.000001 0.000005 0.000001 -9.532537 0.000006 -0.000025 2.030528 -10.696209 72.421944 4.878846 -6.030952 88.206490 -1.854915 -4.455016 67.325543 0.000000 0.000004 -0.000000 -9.103592 -0.043041 -1.865137 0.505340 -20.298105 78.905303 5.967748 -5.014853 92.798563 -2.689298 -3.629272 68.504673 0.000002 0.000000 -0.000000 -8.076637 -0.486688 -3.806281 -4.111309 -27.234544 87.147538 3.145276 -5.133828 74.327806 -0.113520 -3.375047 82.192659 0.000002 0.000002 0.000001 4.570448 11.014735 -2.160813 -4.140958 -12.674473 -12.913951 11.804764 -12.906894 -64.471597 72.196267 -67.515423 82.192782 28.328835 -0.000061 0.000005 -4.263507 -28.152624 12.784600 2.466154 -1.576208 2.681719 5.683005 -0.262302 16.824644 3.217753 -1.872052 1.916479 19.382907 30.878626 -6.651497 2.656024 -1.528818 1.514519 -7.127067 -19.929575 -1.665449 2.020895 -1.154065 1.115142 -0.000002 0.000000 -0.000006 9.109297 -0.518025 2.259848 7.456079 4.145634 -78.484331 5.728633 5.990221 -95.463724 2.426235 4.422349 -60.170087 0.000001 0.000002 0.000000 9.533402 -0.000001 0.000028 1.871242 10.532690 -70.173794 4.963551 6.093955 -88.732668 2.865720 6.100045 -64.440670 -0.000001 -0.000001 0.000001 9.104538 -0.043045 -1.865098 -0.367718 19.949664 -76.195958 5.973759 4.993110 -92.946737 3.669396 5.813206 -69.658593 2.644324 0.000017 0.000051 0.000001 -0.000001 0.000001 8.077760 -0.486908 -3.806273 -4.559866 26.144730 -82.563265 3.339726 4.881549 -72.482111 6.437515 3.044959 -88.612907 0.000000 0.000002 -0.000001 -8.207786 -6.751676 -1.599530 -18.669205 -6.163449 13.954697 49.493948 -10.344953 -5.892531 -28.884962 1.186168 -4.234372 -0.000008 -8.728683 10.710537 -5.428314 -3.145875 1.940537 0.000012 -0.000678 9.278152 -0.000000 0.000000 -0.000000 8.207791 -6.751714 -1.599550 -8.948382 2.684017 9.148968 86.291285 2.714715 3.320032 8.132343 -1.170133 -5.057114 -0.000005 -8.728679 10.710529 -0.198249 -0.038370 -0.078175 0.000002 -0.000653 9.278131 0.000003 0.000000 -0.000001 
-0.507077 92.773361 494.805664 1.392811 -2.046057 -3.934503 -0.000008 10.181601 0.131562 3.213167 0.286867 1.180725 0.000000 9.893970 -1.470758 6.431060 1.172977 1.027089 6.431058 1.172976 1.027090 0.000002 16.740416 -2.049025 -5.709227 0.094885 -1.379096 0.000000 9.617871 1.684944 -7.960877 -0.075669 -1.248188 0.000004 22.037323 7.501138 -0.000000 -0.000000 -0.000000 -4.569974 11.014921 -2.160890 -2.831181 10.535328 15.603801 17.024156 3.184664 58.091981 -27.841557 -0.000005 0.000028 97.543714 54.790343 -109.200580 -28.328876 -0.000033 0.000037 -6.886659 14.318003 -3.638380 -2.464837 -1.573959 2.681852 5.693098 0.154874 -16.852887 -3.215157 -1.872755 1.924257 19.662465 -30.257151 6.606769 -2.654813 -1.527978 1.512592 -7.299696 21.005670 1.213781 -0.000000 0.000000 0.000000 -9.108294 -0.517868 2.259843 5.254578 -1.663682 81.051997 5.630961 -5.976393 94.562022 1.722293 -4.158424 62.898686 -0.000001 0.000003 0.000001 -9.532604 -0.000032 -0.000034 1.992366 -10.730513 72.677154 4.889942 -6.031583 88.329646 -1.845733 -4.469864 67.447285 -0.000001 -0.000002 0.000004 -9.103633 -0.043074 -1.865131 0.556835 -20.314393 79.107176 5.972769 -5.014035 92.853314 -2.689311 -3.629246 68.504687 0.000000 -0.000003 0.000000 -8.076681 -0.486718 -3.806274 -4.101899 -27.242597 87.184250 3.157930 -5.139214 74.482195 -0.106224 -3.389172 82.346256 -0.000000 -0.000001 0.000001 4.570447 11.014743 -2.160856 -3.916205 -10.638073 -12.496989 17.020801 -10.654139 -64.905314 72.985291 -67.619631 82.764141 28.328844 -0.000049 0.000015 -3.106087 -26.909718 17.347654 2.466131 -1.576200 2.681732 5.683007 -0.262302 16.824644 3.217756 -1.872065 1.916480 19.079703 31.116105 -6.487730 2.655972 -1.528789 1.514462 -7.137363 -19.915730 -1.835110 2.020895 -1.154078 1.115126 -0.000008 0.000000 -0.000006 9.109281 -0.518045 2.259863 6.933690 3.709676 -78.704878 5.768833 5.986185 -95.908751 2.460678 4.443700 -60.613551 0.000001 -0.000000 -0.000002 9.533430 0.000003 0.000049 1.890707 10.548248 -70.676906 5.032900 6.096416 -89.504418 2.946418 6.130080 -65.211962 -0.000001 0.000001 -0.000001 9.104565 -0.043031 -1.865075 0.054144 20.138782 -77.227105 6.041266 4.981995 -93.698325 3.751708 5.831223 -70.411006 2.644313 -0.000002 0.000065 -0.000000 0.000001 0.000002 8.077835 -0.486881 -3.806281 -4.451376 26.193417 -82.879722 3.513545 4.944153 -74.545012 6.535755 2.997996 -90.671533 0.000001 0.000001 -0.000000 -8.207795 -6.751660 -1.599536 -15.411460 -6.844911 13.515799 48.993603 -9.815522 -5.510054 -30.075440 1.438805 -5.541833 -0.000004 -8.728710 10.710586 -8.014735 -3.711245 3.278884 -0.000007 -0.000671 9.278133 -0.000001 0.000000 0.000000 8.207787 -6.751678 -1.599525 -18.313168 -0.596268 8.929047 91.148342 0.290966 1.772943 4.788446 -0.680971 -1.222096 -0.000000 -8.728622 10.710574 -1.017593 -0.102733 -0.108798 -0.000004 -0.000700 9.278145 0.000003 -0.000000 -0.000000 
-0.402446 94.306892 501.116364 2.549452 -2.649852 -3.229479 -0.000004 10.181592 0.131549 3.067489 0.779220 1.277226 0.000002 9.893965 -1.470702 6.161162 2.124065 0.583232 6.161161 2.124066 0.583234 0.000004 16.740433 -2.049071 -5.082121 -0.524880 -1.323533 0.000001 9.617898 1.685061 -8.805024 -0.730414 -1.199488 0.000003 22.037338 7.501051 0.000000 0.000000 0.000000 -4.569972 11.014924 -2.160936 -3.341652 13.513147 16.302347 11.346484 5.142547 57.581514 -27.841484 -0.000029 -0.000020 99.912533 53.883919 -112.598175 -28.328936 0.000044 0.000023 -6.844076 17.458262 -2.901515 -2.464750 -1.573972 2.681835 5.693099 0.154876 -16.852884 -3.215202 -1.872757 1.924256 19.490061 -30.442109 6.557309 -2.654807 -1.528009 1.512570 -7.344680 20.958224 1.776073 -0.000002 0.000004 0.000002 -9.108176 -0.517887 2.259831 6.181155 -2.827261 80.195259 5.604575 -5.978354 94.270380 1.701403 -4.140745 62.608444 -0.000000 -0.000002 -0.000000 -9.532496 -0.000049 -0.000051 1.975806 -10.685608 72.109128 4.878752 -6.030933 88.205104 -1.855023 -4.454716 67.323959 -0.000000 0.000003 -0.000001 -9.103487 -0.043097 -1.865131 0.372605 -20.255191 78.384125 5.961406 -5.015801 92.726532 -2.689301 -3.629200 68.504673 0.000003 0.000000 0.000000 -8.076593 -0.486710 -3.806283 -4.357164 -26.873729 85.655319 3.128845 -5.126907 74.133787 -0.122677 -3.357145 81.999720 -0.000001 0.000005 -0.000000 4.570450 11.014748 -2.160882 -3.439391 -8.871065 -10.414583 23.508985 -10.350925 -65.613311 77.731583 -73.033218 89.894790 28.328827 -0.000034 -0.000004 -2.776508 -26.265793 18.894147 2.466199 -1.576211 2.681730 5.683008 -0.262302 16.824644 3.217851 -1.872040 1.916499 19.243010 30.988162 -6.576086 2.656006 -1.528801 1.514521 -7.145857 -19.904262 -1.975576 2.020875 -1.154050 1.115129 -0.000003 0.000005 -0.000000 9.109312 -0.518040 2.259870 6.866898 3.658148 -78.538624 5.705281 5.992437 -95.205467 2.406592 4.409804 -59.912760 -0.000000 0.000000 -0.000002 9.533417 0.000000 0.000033 1.879881 10.540555 -70.551018 4.993852 6.095136 -89.069813 2.900823 6.113257 -64.777610 -0.000001 -0.000001 -0.000002 9.104562 -0.043053 -1.865072 0.014972 20.131626 -76.921474 6.013686 4.986716 -93.393193 3.716308 5.822725 -70.105601 2.644347 -0.000017 0.000060 -0.000002 0.000001 0.000000 8.077822 -0.486913 -3.806269 -4.510690 26.166933 -82.711187 3.509180 4.942614 -74.491874 6.533220 2.999488 -90.618469 0.000001 0.000001 0.000000 -8.207789 -6.751669 -1.599555 -10.718669 -7.307152 11.946582 44.501339 -6.985212 -5.845107 -25.699157 1.309039 -5.735524 0.000008 -8.728606 10.710550 -14.975318 -4.015717 3.807785 0.000012 -0.000675 9.278160 0.000000 0.000000 -0.000000 8.207795 -6.751698 -1.599535 -25.006277 -2.013562 7.278200 88.117766 -0.542940 0.433018 -0.996569 -0.193970 1.479978 0.000005 -8.728655 10.710570 0.858654 -0.060597 -0.062734 0.000003 -0.000602 9.278154 0.000001 0.000000 0.000000 
-0.185717 96.733437 508.034546 3.697691 -3.390745 -2.062501 -0.000007 10.181568 0.131536 2.857532 1.386510 1.272667 0.000000 9.893979 -1.470761 5.780848 3.293105 0.042720 5.780845 3.293105 0.042722 -0.000001 16.740416 -2.048970 -3.867933 -1.323540 -1.544818 -0.000002 9.617904 1.685050 -9.241116 -1.722752 -0.955705 0.000002 22.037338 7.500926 -0.000001 -0.000000 0.000000 -4.569972 11.014920 -2.160866 -3.739981 15.871806 16.724956 7.555279 6.905623 56.671698 -27.841496 0.000016 0.000020 101.965121 51.780576 -115.914143 -28.328829 0.000022 0.000022 -6.976281 19.168922 -1.926686 -2.464845 -1.574003 2.681852 5.693095 0.154874 -16.852889 -3.215228 -1.872768 1.924269 18.839964 -31.139420 6.372606 -2.654878 -1.527984 1.512600 -7.441812 20.852530 3.011125 -0.000003 -0.000003 0.000005 -9.108285 -0.517886 2.259843 6.708383 -3.514905 78.789948 5.560538 -5.981364 93.784603 1.666803 -4.111078 62.125003 -0.000002 0.000003 -0.000001 -9.532545 -0.000050 -0.000048 1.965727 -10.580624 70.870979 4.852894 -6.029371 87.917444 -1.876294 -4.419797 67.039632 0.000004 -0.000001 0.000002 -9.103601 -0.043097 -1.865144 0.013228 -20.132573 76.965133 5.944920 -5.018378 92.542909 -2.689302 -3.629167 68.504687 -0.000000 0.000000 -0.000000 -8.076679 -0.486722 -3.806288 -4.786497 -26.154702 82.711221 3.101759 -5.115197 73.808349 -0.137857 -3.327110 81.676208 0.000000 -0.000003 -0.000001 4.570447 11.014729 -2.160813 -3.200592 -7.491882 -9.355888 29.874865 -10.623496 -64.810914 88.844888 -78.694393 103.818295 28.328892 -0.000051 0.000085 -3.315911 -27.777701 16.915119 2.466146 -1.576227 2.681731 5.683004 -0.262304 16.824650 3.217782 -1.872078 1.916503 18.901579 31.255270 -6.391477 2.655985 -1.528813 1.514498 -7.159591 -19.885505 -2.204421 2.020865 -1.154072 1.115120 0.000001 -0.000001 -0.000009 9.109251 -0.518047 2.259867 6.685044 3.510066 -78.788657 5.577055 6.002631 -93.788230 2.298765 4.339565 -58.500775 0.000001 0.000002 0.000001 9.533380 0.000002 0.000041 1.906954 10.559510 -70.861041 4.891317 6.090390 -87.928488 2.781782 6.067470 -63.637118 0.000000 0.000001 -0.000000 9.104527 -0.043058 -1.865084 0.031989 20.135821 -76.972298 5.936995 4.998941 -92.542376 3.622051 5.800862 -69.253890 2.644304 -0.000049 0.000080 0.000000 -0.000001 0.000002 8.077762 -0.486911 -3.806281 -4.461241 26.188977 -82.851458 3.452716 4.922977 -73.822372 6.501493 3.015415 -89.950381 -0.000000 0.000001 0.000001 -8.207789 -6.751686 -1.599532 -3.975187 -8.493997 9.439844 35.835458 -1.807376 -6.148647 -17.092466 0.758156 -4.319461 -0.000015 -8.728617 10.710604 -22.758499 -3.524044 2.844979 -0.000014 -0.000675 9.278154 -0.000000 -0.000001 -0.000000 8.207789 -6.751707 -1.599546 -26.463725 -2.029659 4.770260 79.639282 0.960339 0.119204 -7.010942 0.240838 2.251672 -0.000006 -8.728701 10.710536 3.759687 -0.044293 -0.017328 -0.000008 -0.000726 9.278097 0.000009 -0.000000 -0.000000 
